<svg xmlns="http://www.w3.org/2000/svg" viewBox="0 0 178.71 37.69"><g id="レイヤー_2" data-name="レイヤー 2"><g id="レイヤー_1-2" data-name="レイヤー 1"><path d="M16.58,17A74,74,0,0,0,13,31.23c-.2,1.15-.26,2.57-1.63,2.7-1.61.17-2.17-1.26-2.47-2.57C8,27.58,7.22,23.78,6,20c-1.5,4.42-1.64,9-2,13.51-.13,1.57,0,3.91-2,3.82C-.57,37.21,0,34.88.18,33.11,1,24,1.86,14.93,2.72,5.84c.12-1.26-.13-3,1.47-3.29,2-.31,2.21,1.74,2.56,3,1.32,4.86,2.43,9.76,3.93,15.9,1.94-5.54,3.48-10,5.07-14.44.48-1.32.61-3.23,2.56-3.1,2.25.16,1.5,2.2,1.6,3.49q1.08,13.17,2,26.33c.09,1.37.53,3.41-1.45,3.65-2.14.25-1.92-2-2.08-3.24C17.68,28.82,17.22,23.47,16.58,17Z" transform="translate(0)"/><path d="M164.49,12.62c-.48,7.82-.86,14.5-1.33,21.16-.08,1.14.44,2.91-1.7,2.87-1.91,0-2-1.71-1.91-2.88.39-9.12.94-18.24,1.38-27.36A2.77,2.77,0,0,1,163,3.48c2-.58,2.68.84,3.24,2.21,1.35,3.33,2.55,6.72,3.89,10.05,1,2.37,2,4.7,3.06,7l1.55-.12c0-4.91-.1-9.82.06-14.72.05-1.57-.47-4.26,2.3-3.95,2.22.24,1.54,2.62,1.44,4.1-.56,8.16-.56,16.31-.32,24.47,0,1.46.21,3.3-1.58,3.7s-2.25-1.48-2.83-2.79Z" transform="translate(0)"/><path d="M109.34,19c0-4.57,0-9.14,0-13.71.07-4.79,3.16-6.55,7.58-4.39,5.41,2.64,7.27,8.37,4.3,14.68-1.07,2.28-1.16,3.66.17,6,4.52,7.84,1.07,14.49-7.7,15.76-3.37.49-5-.59-4.88-4.14.14-4.72,0-9.45,0-14.17Zm3.09,7.31c1.37,1.82-2.15,5.68,2.2,6.1,2.86.27,4.67-2,4.56-5.16s-.79-7-4.5-7C111.46,20.29,113.14,24.07,112.43,26.32ZM119,9.54C118.65,6.6,117.28,4,114.73,4c-3,0-.86,3-1.34,4.58a9.29,9.29,0,0,0,0,3.86c.15,1.12-.88,2.93,1,3.19a3.3,3.3,0,0,0,3.5-2.18A38.86,38.86,0,0,0,119,9.54Z" transform="translate(0)"/><path d="M143.41,21.52c-4.84-1.91-5.35,1.09-5.13,4.88,0,.33,0,.65,0,1,0,6.69,1.07,7.59,7.7,6.18.94-.21,1.83-.71,2.78-.83a1.76,1.76,0,0,1,.93,3.4c-4.22,1.9-8.7,1.76-13.11,1.15-1.74-.24-2.5-2.17-2.33-3.9.95-9.75.27-19.58,1.64-29.31.25-1.77.52-3.26,2.86-3,3.11.32,6.24.57,9.35.93,1.48.18,3.36.42,3,2.43-.31,1.61-2,1.36-3.32,1.13a2.81,2.81,0,0,0-.49-.09c-9.52-.37-7.4-2.06-8.49,7.54-.41,3.57.88,5.27,4.62,4.93a15.81,15.81,0,0,1,2.48,0c1.48.11,3.36.09,3.23,2.12s-2,1.59-3.46,1.46C145,21.48,144.33,21.52,143.41,21.52Z" transform="translate(0)"/><path d="M94.2,15.41c-.17-3.25-.28-6.51-.54-9.75-.12-1.54.25-2.72,1.93-2.71C97,3,97.46,4.22,97.43,5.42c-.14,7.65,1.16,15.31.15,22.94-.51,3.84-2,7.71-6.58,8-4.77.35-7-3.16-8-7.23-2-7.84-1.48-15.86-1.51-23.84,0-1,.29-2,1.51-2.17,1.64-.18,1.73,1.18,2,2.25.87,3.55.39,7.15.47,10.73.09,4.07-.21,8.19,1.22,12.1.71,1.92,1.17,4.56,4,4.24,2.6-.29,3.16-2.87,3.31-4.87.3-4.05.09-8.13.09-12.21Z" transform="translate(0)"/><path d="M65.09,21.71a64.84,64.84,0,0,1,.38,8.78c-.17,2.09,1.74,5.89-2,5.91-3,0-1.91-3.62-2-5.69q-.19-9.3.09-18.59c.11-3.34-.13-5.84-4.57-5-1.31.24-3,0-3.17-1.58-.16-1.87,1.58-2.3,3.14-2.26,4.61.11,9.26-.55,13.83.62,1.14.29,2.48.46,2.46,1.91s-1.48,1.85-2.54,1.57c-5.44-1.41-5.43,1.78-5.28,5.58C65.63,15.84,65.25,18.78,65.09,21.71Z" transform="translate(0)"/><path d="M39.16,37.41l-4.42-.33c-1.07-.09-2-.43-2.05-1.65A1.44,1.44,0,0,1,34,33.67c2.55-.16,2.14-1.9,2.14-3.52,0-6.83-.8-13.65,0-20.48.17-1.56.35-3.42-2.13-3.6a1.4,1.4,0,0,1-.84-.47c-.9-1.12-.65-2.08.51-2.86,1.63-1.11,8.62-.65,9.42.63S43.22,5.84,42,6c-2.89.33-2.15,2.36-2.17,4,0,6.36,0,12.71,0,19.07,0,2-.77,4.37,2.43,5,.69.13,1.1,1.2.71,2.08C42.21,37.87,40.61,37.54,39.16,37.41Z" transform="translate(0)"/></g></g></svg>