<svg xmlns="http://www.w3.org/2000/svg" viewBox="0 0 178.74 37.73"><defs><style>.cls-1{fill:#fff;}</style></defs><g id="レイヤー_2" data-name="レイヤー 2"><g id="レイヤー_1-2" data-name="レイヤー 1"><path class="cls-1" d="M16.7,16.93A70.41,70.41,0,0,0,13,31.2c-.21,1.14-.24,2.56-1.6,2.73-1.63.21-2.2-1.21-2.5-2.52A49.86,49.86,0,0,0,5.36,20C5,23.33,4.58,26.68,4.23,30,4.08,31.49,4.15,33,4,34.42s-.34,3.33-2.39,3C.1,37.13-.09,35.5,0,34.14c.26-2.76.59-5.51.85-8.27.65-6.81,1.26-13.62,1.91-20.43.1-1.12,0-2.57,1.36-2.88C6,2.15,6.28,3.93,6.59,5c1.37,5,2.56,10.09,4.12,16.35,1.92-5.42,3.46-9.84,5-14.25.47-1.32.58-3.29,2.48-3.18C20.82,4.1,19.83,6.41,20,7.8Q21,20.22,21.86,32.65c.1,1.63,1,4.36-1.3,4.62-2.91.34-2.16-2.84-2.4-4.44C17.46,28,17.23,23.12,16.7,16.93Z"/><path class="cls-1" d="M164.52,12.63c-.48,7.82-.86,14.5-1.33,21.16-.08,1.13.44,2.91-1.69,2.86-1.92,0-2-1.71-1.92-2.87.39-9.12.94-18.24,1.38-27.36A2.78,2.78,0,0,1,163,3.48c2-.58,2.69.85,3.24,2.22,1.35,3.33,2.56,6.71,3.9,10.05,1,2.37,2,4.7,3.05,7.05l1.56-.12c0-4.91-.11-9.82,0-14.72.06-1.58-.47-4.26,2.3-4,2.22.25,1.55,2.63,1.44,4.11-.55,8.15-.56,16.31-.31,24.47,0,1.45.21,3.3-1.59,3.69s-2.25-1.47-2.83-2.78C170.86,26.83,167.89,20.17,164.52,12.63Z"/><path class="cls-1" d="M109.37,18.94c0-4.57-.06-9.14,0-13.71s3-6.35,7.22-4.52c5.77,2.47,7.72,8.69,4.45,15.41a4.46,4.46,0,0,0,.2,5.08c4.76,8.06,1.38,14.91-7.59,16.14-3.42.47-4.93-.72-4.81-4.23.17-4.72,0-9.45,0-14.17Zm3,8c1.24,1.72-1.57,5.17,2,5.46,3.21.26,5-2,4.78-5.44-.15-3.12-.91-6.76-4.28-6.65C110.69,20.47,113.65,24.74,112.39,27Zm1.12-23.64v12.3c3.9.23,4.82-2.3,5.28-5.16C119.38,6.83,117.44,4.8,113.51,3.33Z"/><path class="cls-1" d="M138.32,27.68c0,6.26,1.43,7.39,7.94,5.71,1.83-.47,4-1.59,4.58.68.66,2.46-2.21,2.23-3.75,2.87-3.19,1.3-6.55.64-9.8.5-2.42-.1-3.12-2.25-3-4.34.43-9.29,1-18.57,1.42-27.86.15-3.74,1.87-4.73,5.37-4.05,2.58.51,5.24.6,7.85.94,1.21.16,2.39.65,2.24,2.1s-1.51,1.51-2.67,1.43a22.42,22.42,0,0,1-2.94-.44c-4.64-.9-6.71.52-6.74,5.62,0,6.67-.44,6.66,6.41,7.11,1.59.1,3.92-.27,3.89,1.93,0,2.95-2.64,1.65-4.2,1.59C138.33,21.19,138.33,21.14,138.32,27.68Z"/><path class="cls-1" d="M94.21,15.55c-.13-3.09-.2-6.18-.44-9.27-.12-1.55-.34-3.19,1.73-3.3,1.73-.1,2,1.46,2,2.81.1,7.32.38,14.65.14,22-.13,4.07-1.77,7.82-6.47,8.69-3.63.68-7-2.45-8.25-7.6-1.8-7.69-1.4-15.55-1.41-23.37,0-1,.23-2.06,1.4-2.28,1.61-.31,1.82,1,2.09,2.1,1,4,.39,8.13.49,12.19s0,8.17,1.69,12c.66,1.49,1.3,3.16,3.39,3.05s2.56-1.91,3.06-3.39C95.1,24.7,93.88,20.09,94.21,15.55Z"/><path class="cls-1" d="M61.61,21.36c0-2.45,0-4.9,0-7.34.08-3.86,1-8.28-5.58-7a1.8,1.8,0,0,1-2.15-1.57,2.05,2.05,0,0,1,2.26-2.11c4.94-.07,9.91-.64,14.81.54,1.16.28,2.49.53,2.41,2s-1.54,1.8-2.62,1.51c-4.91-1.3-5.11,1.25-5.27,5.14-.3,6.85,0,13.68.11,20.52,0,1.41.35,3.37-1.63,3.56-2.38.23-2.33-1.9-2.36-3.48-.09-3.91,0-7.83,0-11.74Z"/><path class="cls-1" d="M38.55,2.1A11.64,11.64,0,0,1,42,2.57c1.73.72,2.19,2.78.38,3.19-3.25.75-2.5,2.85-2.52,4.79,0,6-.06,12.06,0,18.09,0,2.09-.91,4.77,2.52,5.38.12,0,.22.24.31.37.88,1.21.48,2.49-.71,2.79a13.23,13.23,0,0,1-9-1c-.93-.46-.4-2.31,1.08-2.48,2.17-.24,2.08-1.56,2.07-3.12-.06-7-.79-14-.07-21a4.24,4.24,0,0,0-.52-2.77c-.82-1.1-3.8-.62-2.79-3S36.24,2.49,38.55,2.1Z"/></g></g></svg>